<!DOCTYPE svg PUBLIC "-//W3C//DTD SVG 1.1//EN" "http://www.w3.org/Graphics/SVG/1.1/DTD/svg11.dtd">
<!-- Uploaded to: SVG Repo, www.svgrepo.com, Transformed by: SVG Repo Mixer Tools -->
<svg fill="#ffffff" height="800px" width="800px" version="1.1" id="Layer_1" xmlns="http://www.w3.org/2000/svg" xmlns:xlink="http://www.w3.org/1999/xlink" viewBox="0 0 512 512" xml:space="preserve" stroke="#ffffff">
<g id="SVGRepo_bgCarrier" stroke-width="0"/>
<g id="SVGRepo_tracerCarrier" stroke-linecap="round" stroke-linejoin="round"/>
<g id="SVGRepo_iconCarrier"> <g> <g> <g> <path d="M448,21.333h-21.333C426.667,9.551,417.115,0,405.333,0C393.551,0,384,9.551,384,21.333H128 C128,9.551,118.449,0,106.667,0C94.885,0,85.333,9.551,85.333,21.333H64c-35.355,0-64,28.645-64,64V128v320 c0,35.355,28.645,64,64,64h384c35.355,0,64-28.645,64-64V128V85.333C512,49.978,483.355,21.333,448,21.333z M42.667,85.333 C42.667,73.542,52.209,64,64,64h384c11.791,0,21.333,9.542,21.333,21.333v21.333H42.667V85.333z M42.667,448V149.333h426.667 V288.61c-17.626-15.779-39.646-26.742-64-30.829V192c0-11.782-9.551-21.333-21.333-21.333h-85.333 c-11.782,0-21.333,9.551-21.333,21.333v85.333c0,8.776,5.302,16.307,12.875,19.582C268.986,319.762,256,350.364,256,384 c0,32.783,12.336,62.686,32.61,85.333H64C52.209,469.333,42.667,459.791,42.667,448z M384,469.333 c-47.119,0-85.333-38.214-85.333-85.333s38.214-85.333,85.333-85.333s85.333,38.214,85.333,85.333S431.119,469.333,384,469.333z M320,256v-42.667h42.667V256H320z"/> <path d="M213.333,170.667H128c-11.782,0-21.333,9.551-21.333,21.333v85.333c0,11.782,9.551,21.333,21.333,21.333h85.333 c11.782,0,21.333-9.551,21.333-21.333V192C234.667,180.218,225.115,170.667,213.333,170.667z M192,256h-42.667v-42.667H192V256z"/> <path d="M213.333,320H128c-11.782,0-21.333,9.551-21.333,21.333v85.333c0,11.782,9.551,21.333,21.333,21.333h85.333 c11.782,0,21.333-9.551,21.333-21.333v-85.333C234.667,329.551,225.115,320,213.333,320z M192,405.333h-42.667v-42.667H192 V405.333z"/> <path d="M405.333,362.667v-21.333c0-11.782-9.551-21.333-21.333-21.333c-11.782,0-21.333,9.551-21.333,21.333V384 c0,11.782,9.551,21.333,21.333,21.333h21.333c11.782,0,21.333-9.551,21.333-21.333 C426.667,372.218,417.115,362.667,405.333,362.667z"/> </g> </g> </g> </g>
</svg>